<?xml version="1.0" encoding="UTF-8"?>
<svg version="1.1" viewBox="100 10 500 500" xmlns="http://www.w3.org/2000/svg" xmlns:xlink="http://www.w3.org/1999/xlink" fill="#112B3C">
 <g>
  <path d="m548.33 46.668h-361.66c-12.375 0.011719-24.234 4.9336-32.984 13.684-8.75 8.7461-13.668 20.609-13.684 32.98v373.34c0.015625 12.371 4.9336 24.234 13.684 32.98 8.75 8.75 20.609 13.672 32.984 13.684h361.66c3.0977 0.003907 6.0664-1.2266 8.2539-3.4141s3.4141-5.1562 3.4141-8.25v-443.34c0-3.0938-1.2266-6.0625-3.4141-8.25s-5.1562-3.418-8.2539-3.4141zm-361.66 23.332h350v350h-350c-8.2188 0.046875-16.273 2.2891-23.336 6.4922v-333.16c0.007813-6.1836 2.4688-12.117 6.8438-16.492s10.305-6.832 16.492-6.8398zm350 420h-350c-8.3359 0-16.039-4.4492-20.207-11.668-4.168-7.2188-4.168-16.113 0-23.332 4.168-7.2188 11.871-11.668 20.207-11.668h350z"/>
  <path d="m256.67 244.76v93.57c-0.003907 3.0977 1.2266 6.0664 3.4141 8.2539s5.1562 3.4141 8.25 3.4141h163.34c3.0938 0 6.0625-1.2266 8.25-3.4141s3.418-5.1562 3.4141-8.2539v-93.57c13.145-9.832 21.523-24.754 23.074-41.094 1.5508-16.34-3.8711-32.57-14.934-44.699-11.059-12.125-26.727-19.016-43.141-18.969-3.332 0.12891-6.6484 0.54297-9.9102 1.2461-11.297-15.449-29.285-24.578-48.422-24.578s-37.125 9.1289-48.422 24.578c-3.2617-0.70312-6.5781-1.1172-9.9102-1.2461-16.414-0.046875-32.082 6.8438-43.141 18.969-11.062 12.129-16.484 28.359-14.934 44.699 1.5508 16.34 9.9297 31.262 23.074 41.094zm23.332 81.906v-23.336h140v23.332zm9.7188-163.14c-2.5039 7.457-3.8164 15.266-3.8867 23.137 0 6.4414 5.2266 11.664 11.668 11.664s11.668-5.2227 11.668-11.664c0-25.738 18.32-46.668 40.832-46.668s40.832 20.93 40.832 46.668c0 6.4414 5.2266 11.664 11.668 11.664s11.668-5.2227 11.668-11.664c-0.070313-7.8711-1.3828-15.68-3.8867-23.137 10.086 0.49609 19.457 5.3516 25.676 13.309 6.2227 7.9531 8.6719 18.223 6.7188 28.129-1.9492 9.9062-8.1133 18.477-16.887 23.477-3.5859 2.0938-5.7891 5.9336-5.7891 10.082v41.473h-140v-41.473c0-4.1484-2.2031-7.9883-5.7891-10.082-8.7734-5-14.938-13.57-16.887-23.477-1.9531-9.9062 0.49609-20.176 6.7188-28.129 6.2188-7.957 15.59-12.812 25.676-13.309z"/>
  <use x="70" y="647.5" xlink:href="#t"/>
  <use x="91.40625" y="647.5" xlink:href="#d"/>
  <use x="105.789062" y="647.5" xlink:href="#c"/>
  <use x="125.570312" y="647.5" xlink:href="#l"/>
  <use x="145.253906" y="647.5" xlink:href="#b"/>
  <use x="159.195312" y="647.5" xlink:href="#c"/>
  <use x="178.976562" y="647.5" xlink:href="#k"/>
  <use x="210.007812" y="647.5" xlink:href="#j"/>
  <use x="230.886719" y="647.5" xlink:href="#i"/>
  <use x="260.054688" y="647.5" xlink:href="#f"/>
  <use x="284.464844" y="647.5" xlink:href="#a"/>
  <use x="304.5" y="647.5" xlink:href="#e"/>
  <use x="321.789062" y="647.5" xlink:href="#h"/>
  <use x="331.789062" y="647.5" xlink:href="#e"/>
  <use x="349.078125" y="647.5" xlink:href="#a"/>
  <use x="369.113281" y="647.5" xlink:href="#g"/>
  <use x="389.878906" y="647.5" xlink:href="#h"/>
  <use x="399.875" y="647.5" xlink:href="#s"/>
  <use x="417.238281" y="647.5" xlink:href="#b"/>
  <use x="70" y="676.667969" xlink:href="#r"/>
  <use x="82.6875" y="676.667969" xlink:href="#d"/>
  <use x="97.074219" y="676.667969" xlink:href="#a"/>
  <use x="117.109375" y="676.667969" xlink:href="#q"/>
  <use x="157.65625" y="676.667969" xlink:href="#b"/>
  <use x="171.597656" y="676.667969" xlink:href="#p"/>
  <use x="192.363281" y="676.667969" xlink:href="#c"/>
  <use x="222.300781" y="676.667969" xlink:href="#f"/>
  <use x="246.710938" y="676.667969" xlink:href="#a"/>
  <use x="266.746094" y="676.667969" xlink:href="#o"/>
  <use x="287.511719" y="676.667969" xlink:href="#g"/>
  <use x="318.429688" y="676.667969" xlink:href="#n"/>
  <use x="339.804688" y="676.667969" xlink:href="#d"/>
  <use x="354.191406" y="676.667969" xlink:href="#a"/>
  <use x="374.226562" y="676.667969" xlink:href="#m"/>
  <use x="384.226562" y="676.667969" xlink:href="#c"/>
  <use x="404.007812" y="676.667969" xlink:href="#e"/>
  <use x="421.296875" y="676.667969" xlink:href="#b"/>
 </g>
</svg>
